<svg xmlns="http://www.w3.org/2000/svg" xml:space="preserve" width="512" height="512"><path d="M-244.262-146.778c0-57.234 46.397-103.632 103.631-103.632h281.262c57.234 0 103.631 46.398 103.631 103.632v293.556c0 57.234-46.397 103.632-103.631 103.632h-281.262c-57.234 0-103.631-46.398-103.631-103.632z" style="stroke:#ade08b;stroke-width:0;stroke-dasharray:none;stroke-linecap:butt;stroke-dashoffset:0;stroke-linejoin:miter;stroke-miterlimit:4;fill:#1f1f1f;fill-rule:nonzero;opacity:1" transform="matrix(.92131 0 0 .92131 -450.788 99.213)"/><path d="m244.363 57.967-44.2 44.21c15.33 32.31 14.17 70.49-3.49 101.91h-20L45.593 52.997c31.42-17.66 69.6-18.82 101.9-3.49l44.21-44.2 52.66 52.66z" style="stroke:none;stroke-width:1;stroke-dasharray:none;stroke-linecap:butt;stroke-dashoffset:0;stroke-linejoin:miter;stroke-miterlimit:4;fill:#fff;fill-rule:nonzero;opacity:1" transform="scale(.91852) rotate(-15 -426.065 2822.121)"/><path d="m45.593 52.997 151.08 151.09c-4.85 8.64-10.96 16.77-18.31 24.12l-156.9-156.9c7.35-7.35 15.49-13.46 24.13-18.31z" style="stroke:none;stroke-width:1;stroke-dasharray:none;stroke-linecap:butt;stroke-dashoffset:0;stroke-linejoin:miter;stroke-miterlimit:4;fill:#fff;fill-rule:nonzero;opacity:1" transform="scale(.91852) rotate(-15 -426.065 2822.121)"/><path d="M186.643 52.228H0l7.723-23.451C12.933 12.954 30.825 0 47.485 0h180.616c12.13 0 24.912 6.867 32.978 16.708-17.554 21.668-44.377 35.52-74.436 35.52z" style="stroke:none;stroke-width:1;stroke-dasharray:none;stroke-linecap:butt;stroke-dashoffset:0;stroke-linejoin:miter;stroke-miterlimit:4;fill:#fff;fill-rule:nonzero;opacity:1" transform="translate(-506.87 278.985)"/><path d="M373.193 200.507c4.13 0 7.5 3.36 7.5 7.5 0 4.13-3.37 7.5-7.5 7.5-4.14 0-7.5-3.37-7.5-7.5 0-4.14 3.36-7.5 7.5-7.5z" style="stroke:none;stroke-width:1;stroke-dasharray:none;stroke-linecap:butt;stroke-dashoffset:0;stroke-linejoin:miter;stroke-miterlimit:4;fill:#ffcc75;fill-rule:nonzero;opacity:1" transform="matrix(.91852 0 0 .91852 -636.403 -92.262)"/><path d="M192.24 381.35H178.46v-2.457h-13.777v2.457h-13.778V203.131l-2.565-6.079L11.092 59.802l4.57-4.568-3.098-3.208 15.12-14.6L0 9.742 9.743 0 184.57 174.828l7.668 25.911zm-19.888-199.255-15.205-15.205-9.912 9.572 12.752 12.753 2.793 6.617h13.638z" style="stroke:#54ce56;stroke-width:0;stroke-dasharray:none;stroke-linecap:butt;stroke-dashoffset:0;stroke-linejoin:miter;stroke-miterlimit:4;fill:#fff;fill-rule:nonzero;opacity:1" transform="translate(-465.196 -92.262)"/><path d="M0 35C0 15.67 15.67 0 35 0s35 15.67 35 35-15.67 35-35 35S0 54.33 0 35z" style="stroke:none;stroke-width:1;stroke-dasharray:none;stroke-linecap:butt;stroke-dashoffset:0;stroke-linejoin:miter;stroke-miterlimit:4;fill:#fff;fill-rule:nonzero;opacity:1" transform="translate(-327.882 66.662) scale(.94851)"/><path d="M0 35C0 15.67 15.67 0 35 0s35 15.67 35 35-15.67 35-35 35S0 54.33 0 35z" style="stroke:none;stroke-width:1;stroke-dasharray:none;stroke-linecap:butt;stroke-dashoffset:0;stroke-linejoin:miter;stroke-miterlimit:4;fill:#fff;fill-rule:nonzero;opacity:1" transform="matrix(.94472 0 0 .94472 -497.79 -94.11)"/><path d="M0 95.477C0 42.747 42.746 0 95.477 0h259.129c52.73 0 95.477 42.746 95.477 95.477v270.456c0 52.73-42.747 95.477-95.477 95.477h-38.16l-8.038-24.408c-6.076-18.45-26.94-33.556-46.366-33.556H100.784V263.513c7.515-7.352 12.18-17.607 12.18-28.95 0-1.053-.04-2.096-.12-3.128l98.909-98.909a44.48 44.48 0 0 0 3.5.378l5.35 6.156c-15.817 28.092-17.175 62.499-3.27 91.864a99.889 99.889 0 0 0 14.95 22.842l150.961-131.229a99.938 99.938 0 0 0-20.548-17.983c-27.144-17.857-61.406-21.3-91.416-9.546l-8.458-9.728c-1.698-24.199-22.489-42.666-46.813-41.391-24.592 1.289-43.483 22.27-42.195 46.862.02.381.045.76.074 1.139L71.707 194.072c-22.016.404-39.739 18.377-39.739 40.49 0 11.344 4.664 21.599 12.18 28.951v140.611c-10.227 1.87-20.294 7.481-27.874 15.144C5.999 404.039 0 385.687 0 365.933z" style="stroke:#ade08b;stroke-width:0;stroke-dasharray:none;stroke-linecap:butt;stroke-dashoffset:0;stroke-linejoin:miter;stroke-miterlimit:4;fill:#9747ff;fill-rule:nonzero;opacity:1" transform="translate(103.6 -655.675)"/><path d="M-244.262-146.778c0-57.234 46.397-103.632 103.631-103.632h281.262c57.234 0 103.631 46.398 103.631 103.632v293.556c0 57.234-46.397 103.632-103.631 103.632h-281.262c-57.234 0-103.631-46.398-103.631-103.632z" style="stroke:#ade08b;stroke-width:0;stroke-dasharray:none;stroke-linecap:butt;stroke-dashoffset:0;stroke-linejoin:miter;stroke-miterlimit:4;fill:#1f1f1f;fill-rule:nonzero;opacity:1" transform="matrix(.92131 0 0 .92131 -151.29 -435.418)"/><path d="M-219.182-128.514c0-50.075 41.601-90.668 92.92-90.668h252.525c51.318 0 92.92 40.593 92.92 90.668v257.028c0 50.075-41.602 90.668-92.92 90.668h-252.526c-51.318 0-92.92-40.593-92.92-90.668z" style="stroke:#b93f9e;stroke-width:0;stroke-dasharray:none;stroke-linecap:butt;stroke-dashoffset:0;stroke-linejoin:miter;stroke-miterlimit:4;fill:#fff;fill-rule:nonzero;opacity:1" transform="matrix(1.02673 0 0 1.05223 256 256.075)"/><g transform="matrix(-1 0 0 1 256 256)"><linearGradient id="a" x1="-187.162" x2="528.384" y1="466.323" y2="-247.597" gradientTransform="translate(-225.041 -230.705)" gradientUnits="userSpaceOnUse"><stop offset="0%" style="stop-color:#fff;stop-opacity:1"/><stop offset="53.846%" style="stop-color:#6c3bf4;stop-opacity:1"/><stop offset="100%" style="stop-color:#000;stop-opacity:1"/></linearGradient><path d="M-225.041-135.228c0-52.73 42.746-95.477 95.477-95.477h259.128c52.73 0 95.477 42.746 95.477 95.477v270.456c0 21.012-6.787 40.438-18.289 56.207-9.443-10.562-23.567-17.788-37.004-17.788h-6.692V30.407a40.33 40.33 0 0 0 9.152-25.645c0-22.117-17.73-40.093-39.753-40.49L30.253-145.328c-1.907-21.79-19.617-39.406-42.087-40.584-24.324-1.275-45.114 17.193-46.813 41.392l-8.457 9.727c-30.01-11.755-64.272-8.31-91.416 9.546a99.938 99.938 0 0 0-20.548 17.983l150.961 131.23a99.889 99.889 0 0 0 14.95-22.843C.747-28.24-.61-62.648-16.428-90.74l5.35-6.155a44.323 44.323 0 0 0 9.115-1.588L91.336 1.568a41.054 41.054 0 0 0-.124 3.194c0 12.799 5.937 24.211 15.208 31.632v137.253H-40.866c-19.427 0-40.29 15.106-46.366 33.555l-7.74 23.503h-34.592c-52.73 0-95.477-42.746-95.477-95.477z" style="stroke:#ade08b;stroke-width:0;stroke-dasharray:none;stroke-linecap:butt;stroke-dashoffset:0;stroke-linejoin:miter;stroke-miterlimit:4;fill:url(#a);fill-rule:nonzero;opacity:1"/></g></svg>